<svg xmlns="http://www.w3.org/2000/svg" width="403.743" height="403.479" viewBox="59.1 11.103 403.743 403.479">
  <path d="M404.296 71.4c-37.754-37.77-87.955-58.571-141.356-58.571-53.402 0-103.604 20.8-141.357 58.571-37.754 37.771-58.547 87.999-58.547 141.429 0 53.417 20.792 103.641 58.547 141.416 37.758 37.778 87.959 58.584 141.357 58.584s103.6-20.806 141.356-58.583c37.755-37.777 58.547-87.999 58.547-141.417 0-53.431-20.792-103.657-58.547-141.429zM262.939 406.262c-106.607 0-193.337-86.773-193.337-193.433s86.73-193.433 193.337-193.433c106.606 0 193.337 86.773 193.337 193.433s-86.73 193.433-193.337 193.433z"/>
  <path d="M272.057 226.611l64.497 64.516a3.27 3.27 0 0 0 2.322.963 3.285 3.285 0 0 0 2.322-5.606l-64.493-64.513a16.436 16.436 0 0 0 2.769-9.142c0-7.993-5.702-14.678-13.252-16.205v-67.06a3.283 3.283 0 0 0-6.567 0v67.059c-7.554 1.527-13.26 8.212-13.26 16.206 0 9.118 7.422 16.537 16.543 16.537a16.43 16.43 0 0 0 9.119-2.755zm-19.094-13.781c0-5.496 4.475-9.968 9.977-9.968 5.496 0 9.969 4.472 9.969 9.968a9.94 9.94 0 0 1-2.932 7.054v.002a9.94 9.94 0 0 1-7.037 2.915c-5.502-.002-9.977-4.474-9.977-9.971zM262.939 66.514a3.283 3.283 0 0 0 3.283-3.284V33.54a3.284 3.284 0 0 0-6.566 0v29.69a3.283 3.283 0 0 0 3.283 3.284zM354.185 54.694a3.282 3.282 0 0 0-4.485 1.202L334.857 81.6a3.284 3.284 0 0 0 5.688 3.284l14.841-25.703a3.286 3.286 0 0 0-1.201-4.487zM392.433 141.314c.558 0 1.121-.142 1.639-.441l25.711-14.848a3.282 3.282 0 1 0-3.283-5.686l-25.711 14.848a3.284 3.284 0 0 0 1.644 6.127zM442.145 209.546h-29.681a3.283 3.283 0 0 0 0 6.567h29.681a3.284 3.284 0 0 0 0-6.567zM419.782 299.633l-25.711-14.847a3.283 3.283 0 0 0-3.283 5.686l25.711 14.848a3.283 3.283 0 0 0 3.283-5.687zM340.545 340.736a3.284 3.284 0 0 0-5.687 3.284l14.842 25.708a3.28 3.28 0 0 0 4.486 1.203 3.285 3.285 0 0 0 1.201-4.485l-14.842-25.71zM262.939 359.145a3.283 3.283 0 0 0-3.283 3.283v29.691a3.283 3.283 0 1 0 6.566 0v-29.691a3.283 3.283 0 0 0-3.283-3.283zM189.797 339.533a3.284 3.284 0 0 0-4.484 1.205l-14.822 25.709a3.284 3.284 0 1 0 5.688 3.278l14.822-25.708a3.282 3.282 0 0 0-1.204-4.484zM131.797 284.787l-25.692 14.848a3.281 3.281 0 0 0-1.2 4.484 3.281 3.281 0 0 0 4.486 1.201l25.692-14.847a3.283 3.283 0 1 0-3.286-5.686zM116.697 212.83a3.283 3.283 0 0 0-3.284-3.283h-29.69a3.283 3.283 0 0 0 0 6.567h29.69a3.285 3.285 0 0 0 3.284-3.284zM135.082 135.188L109.39 120.34a3.284 3.284 0 0 0-3.286 5.686l25.692 14.848a3.281 3.281 0 0 0 4.486-1.2 3.283 3.283 0 0 0-1.2-4.486zM176.18 55.898a3.284 3.284 0 0 0-5.688 3.279l14.822 25.704a3.28 3.28 0 0 0 4.484 1.204 3.283 3.283 0 0 0 1.205-4.484L176.18 55.898z"/>
</svg>
